<svg xmlns="http://www.w3.org/2000/svg" xmlns:xlink="http://www.w3.org/1999/xlink" viewBox="0,0,256,256" width="480px" height="480px" fill-rule="nonzero"><g transform="translate(-25.6,-25.6) scale(1.2,1.2)"><g fill="#000000" fill-rule="nonzero" stroke="none" stroke-width="1" stroke-linecap="butt" stroke-linejoin="miter" stroke-miterlimit="10" stroke-dasharray="" stroke-dashoffset="0" font-family="none" font-weight="none" font-size="none" text-anchor="none" style="mix-blend-mode: normal"><g transform="scale(8.53333,8.53333)"><path d="M15,4c-3.362,0 -7.94509,0.05377 -8.87109,0.13477c-1.047,0.621 -3.10891,2.76472 -3.12891,3.38672v1.0293c0,1.304 1.21822,2.44922 2.32422,2.44922c1.329,0 2.4375,-1.1012 2.4375,-2.4082c0,1.307 1.06748,2.4082 2.39648,2.4082c1.329,0 2.36523,-1.1012 2.36524,-2.4082c0,1.307 1.13584,2.4082 2.46484,2.4082h0.02539c1.329,0 2.46484,-1.1012 2.46484,-2.4082c0,1.307 1.03528,2.4082 2.36328,2.4082c1.329,0 2.39844,-1.1012 2.39844,-2.4082c0,1.307 1.10655,2.4082 2.43555,2.4082c1.105,0 2.32422,-1.14522 2.32422,-2.44922v-1.0293c-0.02,-0.621 -2.08191,-2.76572 -3.12891,-3.38672c-3.254,-0.115 -5.50909,-0.13477 -8.87109,-0.13477zM12.48438,11.63672c-0.127,0.221 -0.28475,0.42356 -0.46875,0.60156c-0.502,0.49 -1.18927,0.79492 -1.94727,0.79492c-0.729,0.001 -1.43017,-0.28492 -1.95117,-0.79492c-0.182,-0.178 -0.31931,-0.36784 -0.44531,-0.58984c-0.126,0.222 -0.30333,0.41084 -0.48633,0.58984c-0.521,0.51 -1.22217,0.79592 -1.95117,0.79492c-0.091,0 -0.18472,-0.02573 -0.26172,-0.05273c-0.107,1.112 -0.13048,1.56094 -0.14648,2.33594v0.00391c-0.002,0.394 -0.00386,0.71797 -0.00586,1.16797c0.021,2.334 -0.2307,7.56461 1.0293,8.84961c1.953,0.454 5.54539,0.66111 9.15039,0.66211c3.605,-0.001 7.19739,-0.20906 9.15039,-0.66406c1.26,-1.285 1.0083,-6.51661 1.0293,-8.84961c-0.002,-0.45 -0.00386,-0.77201 -0.00586,-1.16602v-0.00391c-0.016,-0.775 -0.08245,-1.22394 -0.18945,-2.33594c-0.077,0.026 -0.17267,0.05078 -0.26367,0.05078c-0.729,0.001 -1.43017,-0.28297 -1.95117,-0.79297c-0.182,-0.178 -0.35738,-0.36784 -0.48437,-0.58984h-0.00195c-0.127,0.222 -0.26431,0.41184 -0.44531,0.58984c-0.521,0.51 -1.22217,0.79492 -1.95117,0.79492c-0.758,0 -1.44527,-0.30392 -1.94727,-0.79492c-0.183,-0.178 -0.3388,-0.38056 -0.4668,-0.60156c-0.126,0.221 -0.28189,0.42356 -0.46289,0.60156c-0.521,0.51 -1.22217,0.79492 -1.95117,0.79492c-0.026,0 -0.05408,-0.00095 -0.08008,-0.00195c-0.026,0.001 -0.05308,0.00195 -0.08008,0.00195c-0.729,0.001 -1.43017,-0.28492 -1.95117,-0.79492c-0.182,-0.178 -0.33789,-0.38056 -0.46289,-0.60156zM10.9668,14.64453v0.00195c0.712,0.001 1.34491,0.00047 2.12891,0.85547c0.61638,-0.06493 1.25995,-0.09859 1.9043,-0.09766h0.00195c0.64434,-0.00093 1.28792,0.03272 1.9043,0.09766c0.784,-0.855 1.41495,-0.85447 2.12695,-0.85547h0.00195v-0.00195c0.336,0 1.68214,-0.00019 2.61914,2.63281l1.00586,3.61328c0.746,2.687 -0.2388,2.75191 -1.4668,2.75391c-1.822,-0.068 -2.83008,-1.38989 -2.83008,-2.71289c-1.009,0.165 -2.18433,0.24805 -3.36133,0.24805c-1.177,0 -2.35528,-0.08305 -3.36328,-0.24805c0,1.323 -1.00808,2.64489 -2.83008,2.71289c-1.229,-0.002 -2.21475,-0.06691 -1.46875,-2.75391l1.00781,-3.61328c0.937,-2.633 2.28214,-2.63281 2.61914,-2.63281zM15,16.63281c-0.001,0.002 -1.62502,1.49344 -1.91602,2.02344l1.0625,-0.04297v0.92578c0,0.043 0.42752,0.02781 0.85352,0.00781c0.427,0.02 0.85352,0.03519 0.85352,-0.00781v-0.92578l1.0625,0.04297c-0.291,-0.531 -1.91602,-2.02344 -1.91602,-2.02344z"></path></g></g></g></svg>